<?xml version="1.0" encoding="utf-8"?>
<!-- Generator: Adobe Illustrator 24.3.0, SVG Export Plug-In . SVG Version: 6.00 Build 0)  -->
<svg version="1.1" id="Layer_1" xmlns="http://www.w3.org/2000/svg" xmlns:xlink="http://www.w3.org/1999/xlink" x="0px" y="0px"
	 viewBox="0 0 569.99 492" style="enable-background:new 0 0 569.99 492;" xml:space="preserve">
<g>
	<path d="M62.99,492c-0.33-1.03-0.89-2.04-0.95-3.09c-0.14-2.48-0.05-4.98-0.05-7.8c-3.78-0.27-6.55,2.88-10.36,2.91
		c-1.05-1.15-2.98-1.84-2.6-4.35c2.9-4.51,8.72-4.14,12.72-7.27c0-1.6,0-3.5,0-5.66c-3.97,1.72-7.64,3.31-12.04,5.22
		c-0.8,0-2.45,0-4.44,0c-1.93-4.5-3.92-9.15-6.01-14.01c-1.9,0.33-2.7,2.41-4.49,3.59c1.26,2.99,2.51,5.96,4.11,9.78
		c0,0.81,0,2.6,0,4.22c-1.22,1.87-2.88,1.54-5.04,1.28c-1.38-3.1-2.88-6.44-4.49-10.05c-2.45,2.45-4.79,4.79-7.27,7.27
		c-2.05,0.44-2.86-1.48-4.13-2.69c0.11-4.1,3.49-5.99,5.97-8.86c-2.15-2.85-6.4-2.05-8.79-4.88c0-0.78,0-1.74,0-3.26
		c0.64-0.46,1.71-1.22,3.13-2.23c3.32,1.33,7.32,2.94,11.35,4.56c1.31-1.26,2.84-2.73,4.43-4.26c-4.66-1.9-9.23-3.75-13.67-5.56
		c-0.48-0.95-0.89-1.77-1.34-2.67c1.87-4.57,3.78-9.23,5.75-14.03c-1.69,0-3.48,0-5.78,0c-1.14,2.45-2.46,5.24-3.72,8.05
		c-0.44,0.98-0.5,2.22-1.14,3c-0.64,0.78-1.79,1.14-2.63,1.63c-1.1-0.65-2.18-1.3-3.34-1.99c-1.04-4.04,2.87-6.82,2.61-10.76
		c-3.1,0-6.22,0-9.17,0c-0.65-0.65-1.12-1.12-1.6-1.6c0-1.31,0-2.64,0-4c3.24-2.55,7.16-1.04,10.9-1.7
		c-0.24-3.97-4.97-7.31-1.79-11.73c1.65,0,3.1,0,4.56,0c1.79,4.01,3.56,7.95,5.29,11.82c2.14,0,3.92,0,5.86,0
		c-1.94-4.6-3.83-9.06-5.86-13.85c0.3-0.66,0.75-1.62,1.27-2.75c4.39-1.83,8.94-3.72,13.12-5.46c-0.94-0.94-2.04-2.04-3.15-3.15
		c-1.14-0.99-2.53-0.61-4.04,0.24c-2,1.13-4.22,1.85-6.36,2.73c-1.18,0.49-1.19,0.48-4.62-0.84c0-1.48,0-3.05,0-4.88
		c2.94-1.19,5.9-2.38,9.34-3.77c-2.15-2.42-4.35-4.39-6.46-6.63c0-0.86,0-1.83,0-3.2c0.68-0.67,1.6-1.57,2.48-2.44
		c4.03,1.14,6.04,4.53,9.05,7.13c1.2-2.81,2.38-5.57,3.68-8.6c0.62-0.36,1.54-0.89,2.51-1.45c0.94,0.41,1.93,0.84,3.07,1.32
		c0,1.7,0,3.48,0,4.86c-1.35,3.15-2.57,5.98-3.68,8.59c1.37,1.32,2.74,2.63,4.19,4.01c1.82-4.26,3.79-8.85,5.84-13.64
		c6.16-1.01,10.65,3.81,16.51,4.87c0-1.87,0-3.75,0-5.69c-3.58-1.49-7.27-3.03-11.55-4.82c-0.32-0.79-0.88-2.2-1.53-3.84
		c1.48-0.98,2.76-1.83,3.97-2.64c2.95,1.13,5.83,2.24,9.13,3.5c0.53-3.69,0.08-6.96,0.32-10.18c1.39-0.54,2.68-1.04,3.88-1.5
		c3.38,3.29,3.98,6.47,2.17,10.78c0.35,0.35,0.71,0.71,1.13,1.13c2.85-1.24,5.74-2.49,9.26-4.02c0.4,1.05,0.89,2.35,1.38,3.64
		c0.33-0.33,0.67-0.65,1-0.98c0,1.12,0,2.24,0,3.61c-4.2,1.93-8.41,3.86-12.68,5.81c0.33,1.12,0.75,1.92,0.74,2.71
		c-0.01,0.7-0.49,1.4-0.8,2.2c2.58,1.35,4.18-1.38,6.37-1.85c2.06-0.44,3.95-1.68,6.32-2.75c0.98,0,2.43,0,4.23,0
		c2.02,4.62,4.05,9.29,6.19,14.19c1.35-1.49,2.45-2.7,3.76-4.14c-0.21-4.25-4.16-7.71-4.05-12.45c1.21-1.28,2.05-3.07,4.29-2.7
		c3.63,1.9,2.86,6.46,5.65,9.22c2.37-2.06,4.77-4.14,6.99-6.06c1.5,0.44,2.64,0.76,3.95,1.14c0,1.32,0,2.78,0,4.56
		c-1.79,1.73-3.81,3.69-6.05,5.85c1.49,0.8,2.8,1.96,4.25,2.19c2.95,0.47,4.76,2.04,5.8,4.62c-0.63,1.05-1.27,2.13-2.06,3.46
		c-5.13,0.26-8.67-3.87-13.72-4.37c-0.99,0.95-2.52,2.42-4.11,3.94c4.98,2.33,10.38,3.49,15.11,6.79
		c-0.24,5.52-4.01,9.94-5.03,15.43c1.8,0,3.59,0,5.7,0c1.12-2.85,2.35-5.98,3.89-9.91c0.18-0.17,1.03-0.97,1.94-1.82
		c1.49-0.04,3.24-0.58,4.34,1.47c1.22,3.82-2.33,6.49-2.28,10.23c2.49,0,5.6,0,8.83,0c0.84,1.27,1.62,2.43,2.42,3.62
		c-0.68,1.16-1.37,2.34-2.12,3.61c-3.2,0-6.32,0-9.73,0c0.93,2.32,1.76,4.38,2.9,7.22c0,0.77,0,2.42,0,4.18
		c-0.8,0.48-1.71,1.03-2.87,1.73c-0.38-0.27-0.86-0.67-1.39-0.95c-0.4-0.21-0.89-0.25-1.34-0.37c-1.59-3.85-3.19-7.68-4.85-11.71
		c-1.52,0-3.31,0-5.58,0c0.29,1.11,0.42,2.14,0.82,3.06c1.35,3.11,2.88,6.14,4.16,9.27c0.35,0.85,0.05,1.96,0.05,2.96
		c-1.44,3.14-5.34,2.4-7.45,4.59c-2.59-0.31-4.24,1.85-6.64,2.44c0.55,2.16,2.5,3.05,3.5,4.43c3.95-1.65,7.78-3.26,11.62-4.87
		c1.81,0.58,3.3,1.54,3.81,3.59c-1.27,4.8-6.67,4.17-9.8,6.85c2.06,1.99,4.08,3.94,6.01,5.8c0,1.54,0,2.87,0,4.21
		c-0.91,0.5-1.85,1.02-2.81,1.54c-3.45-0.93-5.37-3.93-8.06-6.34c-2.97,2.53-2.26,7.05-5.47,9.16c-2.59,0.06-2.59,0.06-4.51-1.14
		c0-1.36,0-2.81,0-3.72c1.49-3.58,2.79-6.71,3.95-9.5c-1.54-1.45-2.84-2.68-4.17-3.93c-1.72,4.01-3.73,8.69-5.69,13.27
		c-6.37,1.04-10.58-3.44-15.98-4.5c0,1.6,0,3.5,0,5.73c3.69,1.58,7.51,3.22,11.66,4.99c0.05,1.07,0.09,2.17,0.15,3.33
		c-1.03,0.8-2.06,1.59-3.47,2.68c-2.31-0.92-5.17-2.06-8.46-3.37c-0.26,4.06,0.5,8.07-2.12,11.33C65.65,492,64.32,492,62.99,492z
		 M49.39,464.3c4.45-1.59,8.73-2.93,12.36-5.46c0-7.71,0-15.26,0-22.8c-0.4-0.02-0.63-0.11-0.71-0.03
		c-5.39,5.1-10.77,10.22-16.17,15.34C45.22,456.12,47.89,459.88,49.39,464.3z M61.82,417c0-7.73,0-15.29,0-23.21
		c-4.12-1.66-8.22-3.31-12.4-4.99c-1.59,4.45-4.37,8.18-4.48,12.78c5.38,5.25,10.59,10.34,15.82,15.41
		C60.84,417.07,61.08,417,61.82,417z M102.75,441.8c-1.71-4.18-3.28-8.02-4.83-11.8c-7.96,0-15.57,0-23.18,0.01
		c-0.14,0-0.3,0.08-0.42,0.17c-0.12,0.09-0.21,0.23-0.23,0.26c5.5,5.52,10.99,11.04,16.81,16.89
		C94.67,445.32,99.24,444.69,102.75,441.8z M90.9,405.94c-5.78,5.78-11.26,11.26-16.86,16.86c7.9,0,15.77,0,23.99,0
		c1.58-3.76,3.21-7.64,5-11.88C98.86,409.2,94.89,407.57,90.9,405.94z M38.57,447.03c5.88-5.88,11.43-11.43,16.84-16.84
		c-7.53,0-15.42,0-23.19,0c-1.55,4.23-4.07,7.91-4.32,12.33C31.75,444.15,35.43,445.7,38.57,447.03z M55.98,422.89
		c-5.77-5.77-11.28-11.28-16.93-16.93c-3.49,1.46-7.17,3.01-11.11,4.66c0.11,4.44,2.86,8.17,4.35,12.27
		C40.17,422.89,47.94,422.89,55.98,422.89z M67.58,436.26c2.46,3.72,1.26,7.56,1.34,11.24c0.08,3.79,0.62,7.65-0.64,11.79
		c4.07,1.61,8.17,3.24,12.68,5.02c1.73-4.19,3.31-8.03,5.01-12.14c-5.59-5.28-11.35-10.73-17.12-16.17
		C68.77,435.95,68.54,436.06,67.58,436.26z M80.75,388.8c-4.39,1.79-7.95,3.24-11.56,4.72c-0.22,1.38-0.64,2.94-0.68,4.51
		c-0.04,1.45,0.38,2.92,0.46,4.38c0.09,1.66,0.02,3.33,0.02,4.99s0.12,3.34-0.04,4.99c-0.14,1.48-0.6,2.93-0.9,4.34
		c0.42,0.16,0.65,0.3,0.7,0.25c5.79-5.41,11.57-10.83,17.25-16.16C84.18,396.66,82.47,392.74,80.75,388.8z"/>
	<path d="M507.99,492c-0.18-1.66-1.5-0.73-2.29-1c-4.29-3.08-6.43-7.14-5.63-12.39c0.66-1.13,1.22-2.25,1.93-3.27
		c0.81-1.16,1.63-3.02,2.65-3.17c2.27-0.33,1.98-2.36,3.02-3.41c-0.36-1.56-0.74-3.16-1.17-5.04c-2.78,1.73-5.42,3.38-8.39,5.23
		c-1.42-0.15-3.57,0.89-5.02-1.37c0-1.36,0-2.81,0-3.88c4.9-3.53,10.52-5.3,14.94-8.99c-2.15-2.76-0.16-5.97-1.52-8.85
		c-3.02,0.92-5.37,5.32-9.37,1.9c0-2.7,0-5.48,0-8.8c-3.36,1.87-6.87,2.66-9.16,5.64c0,4.97,0,9.96,0,14.56
		c-0.5,1.02-0.84,1.71-1.26,2.55c-0.1,0.05-0.38,0.31-0.65,0.3c-1.73-0.11-3.73,0.71-5.11-1.67c0-3.45,0-7.24,0-11.28
		c-3.18-0.22-5.14,1.45-6.93,3.5c0.3,0.3,0.54,0.54,0.82,0.82c-0.35,1.6-0.7,3.24-1.08,4.99c-1.74,1.74-3.61,3.61-5.61,5.61
		c-1.8-0.3-3.57,1.85-5.73,0.96c-1.85-0.76-3.87-1.35-5.42-2.54c-1.61-1.23-2.76-3.08-3.93-4.45c-0.16-4.4-0.43-8.26,2.95-11.62
		c3.01-3,6.31-3.67,10.38-3.19c5.02,2.86,6.1,2.71,10.41-1.42c-3.66-2.25-7.36-4.52-11.2-6.88c0.58-1.73,1.02-3.05,1.46-4.38
		c0.27-0.14,0.53-0.37,0.82-0.41c2.75-0.45,4.78,1.36,6.97,2.44c3.32,1.64,6.44,3.67,9.51,5.46c2.62-1.57,5.14-3.08,8.06-4.83
		c-2.17-1.49-4.15-2.86-6.28-4.32c0-0.9,0-1.85,0-3.34c1.48-2.16,4.31-3.32,7.06-5.06c-2.96-1.66-5.81-3.25-9.04-5.06
		c-3.96,2.28-8.35,4.82-13.15,7.58c-0.9,0-2.35,0-3.51,0c-1.95-1.07-1.48-2.67-1.53-4.14c1.2-2.02,3.26-2.8,5.26-3.78
		c1.94-0.96,3.66-2.34,5.6-3.61c-1.47-1.05-3.09-2.2-4.85-3.45c-3.73,1.06-7.41,2.95-11.5,1.93c-1.49-0.77-3.01-1.55-4.75-2.44
		c-0.76-1.47-1.62-3.12-2.9-5.6c0.25-2.15,0.6-5.15,0.86-7.37c2.41-4.42,6.17-5.33,10.82-6.11c5.52,0.85,9.3,4.69,10.35,11.27
		c-0.22,0.25-0.55,0.6-1.12,1.23c2.29,1.43,4.53,2.82,7.03,4.37c0-4.38,0-8.5,0-12.13c1.46-2.75,3.64-1.87,5.52-2.03
		c2.05,1.67,1.66,4,1.66,6.21c0.01,4.15,0,8.29,0,12.21c2.88,1.68,5.55,3.23,8.65,5.03c0.72-2.9,0.11-5.51,0.44-8.03
		c0.35-0.35,0.71-0.71,1.24-1.24c1.26,0,2.72,0,4.09,0c1.37,0.92,2.77,1.86,4.32,2.9c0.23-2.15,0.21-4.12,0.71-5.94
		c0.49-1.78-1.44-3.08-0.41-4.51c-4.83-2.78-9.4-5.41-14.01-8.06c0-1.31,0-2.64,0-4.01c1.27-1.76,2.62-2.12,4.99-0.99
		c1.68,0.8,3.19,1.93,4.85,2.78c1.47,0.75,3.04,1.32,5.7,2.46c-2.2-2.97-1.34-5.23-1.63-7.3c-2.05-1.63-4.07-3.23-5.52-4.37
		c-0.62-2.04-1.18-3.35-1.4-4.72c-0.2-1.29-0.04-2.64,0.13-3.82c1.24-4.36,4.02-7.16,9.96-8.57c3.31,0.23,8.14,0.87,10.56,6.2
		c1.76,3.89,1.57,5.55,0.16,9.48c-1.2,3.37-4.71,4.2-6.77,6.72c0,1.7,0,3.48,0,5.78c1.2-0.36,2.26-0.51,3.14-0.98
		c2.46-1.32,4.85-2.78,7.32-4.22c0.93,0,1.93,0,3.42,0c0.42,1.32,0.88,2.79,1.47,4.66c-5.23,3.24-10.28,6.37-15.2,9.42
		c0,3.46,0,6.7,0,10.4c1.95-1.27,3.51-2.28,5.22-3.39c1.31,0,2.76,0,4.12,0c0.44,0.44,0.8,0.8,1.5,1.5c0,2.21,0,4.8,0,7.98
		c3.4-2.18,6.27-4.01,8.95-5.73c0-5.8,0-11.12,0-16.39c0.4-0.4,0.75-0.75,1.28-1.28c1.26,0,2.72,0,4.35,0
		c0.3,0.3,0.77,0.77,1.42,1.42c0,3.94,0,8.06,0,12.4c2.1-1.11,3.96-2.1,5.69-3.01c0.25-4.83,0.75-5.77,3.35-10.71
		c2.35-0.98,4.9-2.06,7.6-3.19c8.09,2.94,8.09,2.94,11.26,8.52c0,1.26,0.16,2.76-0.05,4.21c-0.17,1.19-0.79,2.31-1.42,4.07
		c-2.82,4.4-7.38,6.15-12.99,4.92c-1.28-0.66-2.52-1.3-4.18-2.15c-1.73,1.11-3.57,2.29-5.48,3.51c3.56,3.19,8.42,3.93,11.38,7.72
		c-0.56,1.42-1.06,2.71-1.56,3.97c-2.91,0.54-5.2-0.34-7.59-2.1c-2.98-2.19-6.46-3.7-9.84-5.58c-2.54,1.54-5.35,3.24-8.61,5.22
		c1.57,1.02,2.8,1.8,4.01,2.61c1.18,0.78,2.34,1.59,3.29,2.24c0,1.37,0,2.36,0,3.28c-1.61,2.06-4.72,1.98-6.28,4.49
		c1.96,2.71,5.26,2.93,7.69,4.81c5.38-2.33,9.92-6.59,15.71-8.07c1.51,1.4,3.28,2.26,2.88,4.79c-2.92,3.23-7.39,4.6-11.02,7.22
		c4.37,3.99,5.76,4.15,10.59,1.24c1.45,0,2.97-0.17,4.43,0.05c1.19,0.18,2.32,0.82,4.08,1.48c0.91,0.91,2.33,2.33,3.4,3.4
		c2.81,5.79,1.95,10.88-2.6,14.51c-3.15,2.51-7.42,3.24-11.41,1.41c-4.35-1.99-6.35-6.11-6.42-12.22c-1.82-1.18-3.64-2.35-5.71-3.69
		c-0.56,2.11-0.22,4.21-0.28,6.26c-0.06,2.15-0.01,4.3-0.01,6.51c-1.14,0.71-2.2,1.37-3.43,2.14c-1.07-0.62-2.22-1.28-3.48-2
		c0-5.52,0-10.97,0-16.59c-2.93-1.77-5.81-3.51-9-5.44c0,3.21,0,5.99,0,8.6c-0.53,0.53-0.88,0.88-1.43,1.43
		c-2.17,0.76-4.17-0.21-5.88-1.65c-1.09-0.92-2.04-1.56-3.61-0.95c0,2.71,0,5.5,0,8.79c4.77,2.89,9.87,5.97,14.79,8.94
		c-0.08,2.03,0.76,3.86-2.04,5.03c-2.1,0.38-4.48-0.32-6.78-2.24c-1.59-1.33-3.73-2.01-5.95-3.16c0,2.63,0,4.75,0,6.67
		c1.76,1.24,3.86,2.22,5.24,3.83c1.26,1.45,1.93,3.51,2.52,5.41c0.88,2.83-2.2,8.77-5.04,10.54c-0.98,0.61-2.51,0.49-2.91,1.95
		C511.99,492,509.99,492,507.99,492z M513.81,416.31c0.21,1.45,0.38,2.61,0.58,3.98c1.48-0.73,2.55-1.27,3.45-1.71
		c0-1.55,0-2.98,0-4.56C516.5,414.78,515.35,415.43,513.81,416.31z M514.13,436.85c1,0.58,2.25,1.32,3.67,2.15c0-1.79,0-3.33,0-4.76
		c-1.26-0.5-2.33-0.93-3.67-1.46C514.13,434.3,514.13,435.4,514.13,436.85z M517.48,426.61c1.96,1.03,3.44,1.8,4.85,2.54
		c1.01-1.01,1.83-1.83,2.75-2.75c-1.32-0.54-2.58-1.06-3.7-1.52C520.19,425.41,519.21,425.84,517.48,426.61z M498.64,425.09
		c-0.71,0.57-1.21,0.97-1.15,0.92c0.78,1.1,1.53,2.15,2.24,3.16c1.01-1.22,1.84-2.23,2.72-3.29
		C501.56,424.58,499.93,424.93,498.64,425.09z M504.14,434.28c0,1.68,0,3.11,0,4.64c1.07-0.52,1.97-0.96,2.7-1.32
		c0-1.55,0-2.98,0-4.46C505.9,433.53,505.11,433.86,504.14,434.28z M504.23,418.68c1.15,0.5,1.85,0.81,2.68,1.17
		c0-1.31,0-2.41,0-3.62c-0.77-0.48-1.53-0.96-2.68-1.69C504.23,416.23,504.23,417.44,504.23,418.68z"/>
	<path d="M285.99,492c-0.33-1.03-0.91-2.05-0.95-3.09c-0.13-3.15-0.05-6.31-0.05-9.96c-1.14,0.24-2.12,0.5-3.12,0.66
		c-1.44,0.22-2.88,0.37-4.26,0.55c-0.59-1.1-1.1-2.05-1.66-3.08c1.39-4.32,6.03-4.87,8.92-7.38c0-0.86,0-1.65,0-2.37
		c-2.07-0.99-3.62,0.34-4.82,1.29c-2.03,1.6-4.59,2.1-6.52,3.56c-1.48,1.11-2.78,0.51-4.57,1.08c-0.46-1.7-0.86-3.19-1.25-4.64
		c5.17-4.68,11.52-6.94,17.09-10.81c0-1.34,0-2.79,0-4.5c-7.23-1.04-13.54-4.34-18.11-10.17c-1.58,0.81-2.96,1.51-4.57,2.33
		c0,6.2,0,12.66,0,18.93c-0.65,0.65-1.12,1.12-1.61,1.61c-0.97,0-1.97,0-3.1,0c-0.43-0.55-0.97-1.14-1.4-1.81
		c-0.33-0.51-0.53-1.11-1.12-2.39c0-3.33,0-7.45,0-11.65c-0.98,0.41-1.79,0.74-2.77,1.14c0,3.04,0,6.16,0,9.37
		c-1.28,0.8-2.48,1.55-3.59,2.24c-1.08-0.64-2.16-1.28-3.53-2.09c0-1.5,0-3.07,0-4.98c-4.72,1.2-7.61,5.94-12.39,5.13
		c-2.12-1.15-1.6-2.9-1.55-4.3c2.31-3.8,6.65-4.44,10.07-7.1c-1.35-0.95-2.55-1.79-3.93-2.76c0-1.32,0-2.77,0-4.79
		c1.11-0.36,2.57-0.84,3.42-1.11c2.87,1.67,5.15,3.01,7.49,4.37c1.4-0.58,2.67-1.1,4.25-1.75c-4.61-2.66-8.93-5.15-13.25-7.64
		c0-1.61,0-3.06,0-4.45c0.9-0.45,1.73-0.87,2.94-1.49c5.67,3.05,11.64,6.27,17.82,9.6c1.27-1.21,2.29-2.19,3.24-3.1
		c-2.83-6.69-2.83-13.14,0.04-19.91c-1.21-0.81-2.48-1.66-4.12-2.76c-4.24,2.53-8.67,5.09-13.02,7.79c-2.99,1.86-4.2,1.97-6.9,0.08
		c0-1.41,0-2.86,0-4.22c3.99-2.35,7.86-4.64,11.92-7.04c-0.11-1.54-0.93-2.46-3.01-2.35c-2.9,1.6-5.54,4.48-9.55,3.93
		c-0.48-0.48-0.95-0.95-1.44-1.44c0-1.32,0-2.65,0-3.7c1.43-1.14,2.73-2.19,4.12-3.3c-3.53-2-6.78-3.83-10.04-5.67
		c0-1.12,0-2.09,0-3.5c0.67-0.62,1.62-1.5,2.68-2.48c4.12,0.52,6.7,4.49,11.16,5.17c0-1.67,0-3.24,0-4.46
		c0.71-0.71,1.06-1.06,1.46-1.46c1.4,0,2.85,0,4.52,0c2.32,3.29,0.37,7.09,1.33,10.76c0.57,0.36,1.35,0.86,2.75,1.75
		c0-3.72,0.1-6.84-0.03-9.94c-0.11-2.56,0.45-4.77,2.4-6.53c1.62-0.28,3.24-0.49,4.57,1.38c0,6.2,0,12.65,0,19.23
		c1.41,0.83,2.75,1.62,4.3,2.54c4.97-5.51,10.7-9.56,18.5-10.46c0-1.38,0-2.95,0-4.24c-5.23-4.19-11.77-6.16-16.55-10.7
		c-0.29-1.81-0.56-3.42,1.02-4.61c1.81-0.84,3.57-0.31,4.93,0.76c3.2,2.52,7.06,3.78,10.68,5.9c0-1.19,0-2.31,0-3.68
		c-2.33-2.58-7.02-2.42-8.98-6.4c0.48-1.22,1-2.51,1.49-3.76c2.73-0.43,5.17-0.06,7.44,2.1c0-4.32,0-8.43,0-12.44
		c1.13-0.67,2.04-1.21,3.02-1.8c0.93,0.4,1.92,0.82,3.05,1.31c0.37,1.72,0.94,3.53,1.13,5.38c0.2,1.96,0.04,3.96,0.04,6.48
		c1.19-0.45,2.09-0.96,3.04-1.1c1.14-0.17,2.32-0.04,3.62-0.04c0.5,1.26,1.01,2.55,1.52,3.83c-1.76,3.42-5.3,3.93-8.06,5.57
		c0,1.11,0,2.22,0,3.51c0.57,0,1.16,0.19,1.45-0.03c2.53-1.86,5.58-2.73,8.09-4.75c1.48-1.19,4.03-2.49,6.17,0.27
		c0,1.2,0,2.66,0,4.28c-5.35,3.04-10.88,6.18-16.66,9.46c0.29,0.63,0.69,1.2,0.8,1.83c0.14,0.81,0.03,1.66,0.03,2.77
		c7,1.33,12.83,4.92,17.71,10.56c0.69-0.51,1.29-1,1.93-1.42c0.65-0.42,1.34-0.77,2.23-1.27c0-6.24,0-12.69,0-18.97
		c0.65-0.65,1.12-1.12,1.61-1.61c0.97,0,1.96,0,3.2,0c0.69,1.05,1.46,2.23,2.43,3.71c0,3.82,0,7.94,0,12.56
		c1.12-0.55,1.89-0.94,2.77-1.37c0-3.22,0-6.34,0-9.29c0.65-0.65,1.12-1.12,1.68-1.68c1.73,0.46,4-1,5.5,2.04c0,0.83,0,2.28,0,4.06
		c4.3-0.72,6.99-4.38,11.22-5.4c0.98,1.52,3.09,2.02,2.69,4.63c-2.12,3.58-6.34,4.66-10.02,7.24c1.29,1.05,2.54,2.06,3.93,3.19
		c0,1.14,0,2.59,0,4.29c-4.74,2.83-7.49-1.47-11.46-3.22c-0.72,0.51-1.68,1.18-3.14,2.2c4.5,2.57,8.48,4.84,12.56,7.17
		c0,1.47,0,2.92,0,4.52c-0.93,0.93-3.57,1.42-4.98,0.67c-3.01-1.6-5.99-3.25-8.95-4.94c-1.89-1.08-3.72-2.28-5.8-3.56
		c-1.37,0.82-2.81,1.7-4.21,2.54c2.43,6.73,3.38,13.18,0.05,19.73c0.98,0.96,1.98,1.94,2.97,2.92c3.09-0.79,13.88-6.59,17.04-9.21
		c1.16,0.42,2.47,0.9,3.9,1.42c0,1.44,0,2.89,0,4.53c-1.84,1.18-3.78,2.52-5.82,3.69c-1.98,1.14-4.06,2.11-6.4,3.31
		c0.69,0.87,1.27,1.59,1.82,2.29c3.76,0.19,5.68-3.41,9.06-4.19c1.08,0.49,2.18,0.99,3.38,1.54c0,1.42,0,2.87,0,4.37
		c-1.35,0.9-2.66,1.77-4.14,2.76c3.37,2.69,7.99,3.25,10.22,7.34c-0.08,1.21,0.45,2.81-1.42,3.98c-0.83,0-1.94,0-3.22,0
		c-2.77-1.61-5.71-3.33-9.1-5.31c-0.15,2.01-0.27,3.58-0.39,5.1c-1.42,2.2-3.57,1.17-5.38,1.35c-0.52-0.52-0.99-0.99-1.47-1.47
		c0-2.99,0-5.99,0-8.97c-1-1.21-2.06-2.19-3.76-1.28c-0.08,0.3-0.33,0.71-0.22,0.88c1.26,1.89,0.99,3.76,0.63,5.91
		c-0.21,1.29-1.96,3.25,0.63,4.5c-0.82,1.49-1.56,2.85-2.35,4.28c-1.23,0-2.34,0-3.6,0c-0.34-0.34-0.81-0.81-1.31-1.31
		c0-6.29,0-12.62,0-18.98c-1.51-0.78-3.01-1.55-4.55-2.34c-2.04,1.86-4.12,3.94-6.39,5.77c-2.84,2.29-6.45,2.9-9.81,4.05
		c-0.84,0.29-1.57,0.89-2.38,1.37c0.41,0.41,0.65,0.65,0.93,0.93c-0.3,0.62-0.61,1.26-1.06,2.19c5.8,3.48,11.54,6.92,16.98,10.18
		c0.36,2.22,0.62,3.82-1.35,5.3c-5.26,0.28-8.87-4.1-13.91-6.23c-0.59,0.52-1.28,1.12-2.26,2c2.83,2.61,5.42,4.22,8.43,5.46
		c0.41,0.82,0.9,1.79,1.38,2.75c-0.49,1-0.97,1.97-1.6,3.26c-2.23-0.4-4.56-0.82-7.1-1.27c1.1,4.54,1.36,8.96-1.33,13.04
		C288.65,492,287.32,492,285.99,492z M272.95,413.57c3.58,2.76,7.42,4.94,11.85,6.64c0-4.63,0-8.85,0-13.28
		C279.77,407.49,276.15,410.06,272.95,413.57z M284.87,432.45c-4.37,2.5-8.12,4.66-12.03,6.9c3.48,3.48,6.57,7.16,12.03,6.55
		C284.87,441.47,284.87,437.37,284.87,432.45z M294.79,426.66c3.99,2.25,7.82,4.41,11.61,6.55c2.46-3.63,1.27-7.28,1.58-10.34
		c-0.59-1.15-1.01-1.98-1.43-2.8C302.71,422.22,298.87,424.37,294.79,426.66z M269.81,433.01c1.72-1,3.42-2.08,5.19-2.99
		c2.7-1.4,2.72-1.35,4.8-4.07c-3.48-1.98-6.94-3.94-10.38-5.89c-1.56,1.98-1.48,4.21-1.45,6.45
		C268,428.84,267.7,431.25,269.81,433.01z M291.68,432.7c-0.28,0.21-0.57,0.42-0.85,0.63c1.64,1.42,1.68,2.79,0.21,4.12
		c1.39,1.37,1.39,2.74,0,4.11c1.82,1.04,0.25,3.16,1.44,4.5c4.61-0.44,7.62-3.37,10.62-6.79
		C299.19,437.01,295.44,434.85,291.68,432.7z M302.99,413.76c-2.92-3.89-6.3-6.2-11-6.69c0,2.41,0,4.55,0,6.68
		c0,2.09,0.01,4.17,0.02,6.46C295.94,417.9,299.42,415.86,302.99,413.76z"/>
	<path d="M569.99,82c-1.06-0.18-1.75,0.43-2.62,0.95c-3.06,1.84-6.25,3.46-9.67,5.32c3.28,3.01,7.92,3.46,10.31,7.55
		c0.55,2.09-1.41,2.99-2.76,4.26c-4.21-0.46-6.86-3.86-10.91-5.25c-0.84,4.96-0.03,9.87-0.44,14.75c-0.43,0.43-0.91,0.91-1.4,1.4
		c-1.31,0-2.63,0-4.29,0c-0.39-1.36-1.12-2.82-1.17-4.3c-0.16-4.66-0.06-9.33-0.06-13.99c0-0.8,0-1.61,0-2.47
		c-1.48-0.85-2.83-1.61-4.26-2.43c-0.91,2.11-1.74,4.07-2.59,6.05c-1.43,0-2.54,0-3.81,0c-0.32-0.32-0.79-0.79-1.3-1.3
		c0-2.95,0-5.94,0-9c-3.74-2.18-7.48-4.36-11.45-6.68c-1.19,1.44-0.3,3.14-0.7,4.96c-1.1,0.66-2.44,1.47-3.73,2.24
		c-1.61-0.78-3.11-1.5-4.94-2.38c0,4.51,0,8.62,0,13.07c2.24,2.82,7.99,2.03,8.64,7.93c-0.57,0.32-1.72,0.97-2.88,1.62
		c-1.77,1.14-3.68,0.12-5.73-1.39c0,1.89,0,3.66,0,5.89c4.61,4.39,11.4,6.26,16.67,10.53c0,1.13,0,2.25,0,3.27
		c-0.45,0.45-0.8,0.8-1.28,1.28c-1.32,0-2.77,0-3.76,0c-3.99-2.18-7.63-4.17-11.67-6.38c0,4.38,0,8.17,0,11.61
		c-1.37,2.19-3.09,2.13-4.85,1.75c-3.81-3.65-1.71-8.38-2.61-12.98c-4.32,1.9-7.79,5.08-12.41,6.84c-0.82-0.47-1.98-1.14-3.19-1.84
		c0-1.21,0-2.33,0-3.76c5.02-3.05,10.21-6.21,15.81-9.62c0.77-1.25-0.96-3.6,1.04-5.01c-0.48-0.48-0.96-0.96-1.52-1.52
		c-0.52,0.62-1.04,1.24-1.59,1.9c-1.52,0-2.97,0-4.51,0c-0.4-0.4-0.87-0.87-1.35-1.35c0-0.99,0-1.98,0-3.32
		c1.03-0.66,2.22-1.44,3.43-2.18c2.43-1.49,5.17-2.72,4.84-7.11c-1.01-2.21,0.19-5.66-0.54-9.36c-1.51,1.01-2.65,1.78-3.61,2.42
		c-2.38,0.47-2.78-1.75-4.33-2.41c0-1.57,0-3.03,0-4.97c-4.12,2.32-7.88,4.43-11.74,6.61c0,3.19,0,6.31,0,9.25
		c-0.53,0.53-0.88,0.88-1.4,1.4c-1.27,0-2.73,0-4.48,0c-0.48-1.73-1.02-3.67-1.66-5.96c-1.45,0.7-2.93,1.41-4.4,2.13
		c0,6.22,0,12.19,0,18.59c-0.82,0.46-1.84,1.03-2.87,1.61c0.17,0.22,0.35,0.44,0.52,0.66c-1.12,0-2.24,0-3.41,0
		c-0.42-0.42-0.89-0.89-1.53-1.53c0-4.61,0-9.4,0-14.63c-2.5,1.23-4.78,1.96-6.76,3.6c-1.26,1.05-2.84,2.18-4.76,1.67
		c-0.73-0.2-1.39-0.68-2.16-1.07c0-1.55,0-3,0-4.72c3.16-1.81,6.5-3.73,9.87-5.66c-4.37-2.62-8.65-5.17-12.94-7.74
		c0-1.09,0-2.07,0-3.43c0.68-0.67,1.6-1.58,2.64-2.61c6.09,3.27,12.07,6.48,18.24,9.79c0.95-0.95,1.57-1.69,2.32-2.27
		c0.53-0.41,1.25-0.59,2.53-1.17c-1.36-0.78-2.14-1.14-2.81-1.64c-0.66-0.5-1.19-1.16-1.84-1.81c-0.24-1.55-0.53-3.16,1.38-4.59
		c3.99-0.67,6.81,2.72,10.58,3.91c3.48-1.99,7.13-4.06,11.14-6.35c-1.47-1.02-2.69-1.87-4.06-2.82c0-1.36,0-2.82,0-4.57
		c1.05-0.7,2.36-1.57,3.9-2.6c-4.17-2.26-7.64-5.33-11.98-6.78c-3.15,1.99-5.85,4.66-9.37,4.14c-2.16-1.18-1.69-2.79-1.76-4.56
		c1.25-1.05,2.65-2.23,4.34-3.66c-0.89-0.5-1.69-0.84-2.37-1.35c-0.63-0.46-1.13-1.1-1.68-1.64c-6.62,1.96-11.54,6.6-17.92,8.92
		c-0.87-0.5-2.04-1.17-3.25-1.86c0-1.23,0-2.35,0-3.73c4.22-2.41,8.55-4.89,13.17-7.52c-3.48-1.96-6.68-3.76-10.05-5.66
		c0-1.41,0-2.84,0-4.51c0.81-0.41,1.89-0.96,3.27-1.66c3.24,1.81,6.57,3.67,10.31,5.75c0-5.39,0-10.17,0-14.8
		c2-1.59,2-1.59,4.92-1.47c1.9,1.79,2.36,4.02,2.3,6.56c-0.11,4.64-0.03,9.28-0.03,13.99c1.46,0.84,2.81,1.61,4.39,2.51
		c0.59-2.1,1.13-3.99,1.72-6.08c1.53,0,3.1,0,4.6,0c0.43,0.43,0.79,0.79,1.31,1.31c0,2.94,0,6.06,0,9.27
		c3.86,2.18,7.62,4.3,11.76,6.64c0-1.92,0-3.36,0-4.24c1.19-1.42,2.02-2.41,2.81-3.36c1.79,0.88,3.31,1.62,5.41,2.66
		c0-2.4-0.14-4.36,0.04-6.28c0.17-1.88-0.86-3.98,1.15-5.93c-3.19-2.31-6.33-4.6-9.54-6.93c0.67-1.69,1.18-2.98,1.7-4.3
		c1.36,0,2.68,0,4.31,0c0.41,0.6,0.98,1.42,2.09,3.03c0-3.18,0-5.29,0-7.58c-4.77-3.75-11.19-5.52-15.77-9.96
		c0.1-1.62-0.44-3.23,1.49-4.38c1.13,0,2.58,0,3.91,0c3.41,1.95,6.78,3.88,10.61,6.07c0-2.01,0.12-3.8-0.03-5.56
		c-0.24-2.83,0.52-5.34,2.03-7.68c1,0,2,0,3,0c0.67,0.53,1.33,1.05,2.2,1.74c0,3.62,0,7.4,0,11.75c4.69-2.61,8.99-4.99,13.29-7.38
		c1.14,0.7,2.33,1.43,3.48,2.13c0,1.17,0,2.16,0,3.59c-5.05,4.21-12.18,5.84-17.05,10.76c0.1,1.94,0.2,3.66,0.3,5.56
		c3.45-2.04,3.45-2.04,6.51-1.99c0.84,0.91,1.7,1.84,2.31,2.5c-1.12,5.17-6.11,4.98-8.8,7.56c0,4.29,0,8.52,0,13.13
		c1.85-0.9,3.36-1.64,4.94-2.41c1.31,0.8,2.63,1.62,4.03,2.48c0,1.61,0,3.05,0,4.93c4.18-2.43,8.02-4.66,11.85-6.88
		c0-3.1,0-6.08,0-8.97c1.3-1.98,3.02-1.7,5.21-1.1c0.75,1.77,1.59,3.71,2.5,5.86c1.48-1.03,2.85-1.99,4.24-2.96
		c0-5.15-0.1-10.32,0.06-15.47c0.05-1.65,0.75-3.27,1.13-4.81c1.69,0,3.02,0,4.33,0c0.49,0.49,0.96,0.96,1.39,1.39
		c0.41,4.88-0.37,9.79,0.43,14.77c4.04-1.38,6.69-4.74,10.9-5.27c1.35,1.26,3.31,2.15,2.81,4.25c-2.4,4.1-7.02,4.59-10.19,7.43
		c4.16,2.54,8.15,4.98,12.14,7.41c0,1.67,0,3.33,0,5c-1.03,0.32-2.06,0.64-3.2,1c-5.44-3.02-10.51-6.95-16.55-9.17
		c-1.53,1.14-3.79,1.11-4.31,3.28c1.5,1.23,2.91,2.39,3.96,3.25c0.46,2.94-1.6,3.49-2.41,4.59c-4.31,0.53-6.25-3.5-9.84-3.96
		c-3.54,2.07-7.16,4.19-11.01,6.44c1.61,1.07,2.92,1.95,4.27,2.84c0,1.51,0,2.96,0,4.46c-1.35,0.9-2.66,1.77-4.28,2.85
		c3.99,2.31,7.74,4.47,11.04,6.38c3.91-0.74,5.88-4.71,9.9-3.89c0.87,1.26,2.9,1.83,2.28,4.62c-0.99,0.81-2.4,1.97-3.81,3.12
		c1.48,2.03,1.48,2.03,4.95,3.29c5.22-2.92,10.62-5.94,16.09-9.01c0.86,0.27,1.89,0.59,2.92,0.91C569.99,78,569.99,80,569.99,82z
		 M513.27,58.63c2.65,0.16,2.65,0.16,2.33-1.17C515.17,57.69,514.5,58.02,513.27,58.63z M515.74,73.46c0-0.12,0-0.79,0-1.55
		c-0.69,0.12-1.13,0.2-1.32,0.23C514.86,72.59,515.37,73.1,515.74,73.46z M506.16,73.82c0.29-0.02,0.57-0.04,0.86-0.06
		c-0.12-0.56-0.24-1.11-0.36-1.67c-0.16,0.02-0.33,0.04-0.49,0.07C506.16,72.71,506.16,73.26,506.16,73.82z M519.99,65.75
		c0-0.17,0-0.33,0-0.5c-0.67,0-1.33,0-2,0c0,0.17,0,0.33,0,0.5C518.65,65.75,519.32,65.75,519.99,65.75z M502.8,65.83
		c-0.02-0.29-0.04-0.57-0.06-0.86c-0.56,0.12-1.11,0.24-1.67,0.36c0.02,0.16,0.04,0.33,0.07,0.49
		C501.7,65.83,502.25,65.83,502.8,65.83z M506.82,57.16c-0.29,0.04-0.58,0.07-0.86,0.11c0.13,0.54,0.26,1.08,0.39,1.63
		c0.16-0.03,0.32-0.05,0.48-0.08C506.82,58.26,506.82,57.71,506.82,57.16z"/>
	<path d="M289.99,0c1.01,1.2,1.02,2.62,1.01,4.08c-0.03,4.28-0.01,8.56-0.01,12.75c0.56,0.11,0.79,0.22,0.86,0.16
		c2.83-2.5,5.64-5.01,8.8-7.83c0.64,0,1.75,0,3,0c0.35,0.35,0.82,0.82,1.32,1.32c0,0.97,0,1.96,0,2.98
		c-4.58,4.55-9.19,9.12-13.84,13.75c0,7.14,0,14.26,0,21.43c0.42,0.42,0.89,0.89,1.39,1.39c4.06-4.59,5.48-10.98,9.92-14.96
		c2.65-0.4,3.41,1.46,4.77,2.73c-1.66,5.85-5.81,10.33-7.99,15.89c1.28,1.2,2.47-0.02,3.63-0.7c5.65-3.29,11.26-6.64,16.78-9.91
		c1.44-6.58,2.73-12.98,5.3-18.97c1.82,0,3.27,0,4.89,0c0.73,4.7-0.25,9.14-2.28,14.26c5.55-2.25,9.36-6.22,14.13-7.39
		c0.55,0.05,0.77,0,0.86,0.09c0.85,0.8,1.68,1.61,2.46,2.37c0,1.09,0,2.09,0,3.28c-4.24,2.44-8.56,4.93-12.88,7.42
		c1.48,2.27,3.9,1.57,5.81,2.25c1.89,0.67,3.85,1.16,5.92,1.77c0,1.46,0,2.92,0,4.51c-0.22,0.22-0.57,0.57-0.93,0.93
		c-0.28,0.14-0.55,0.39-0.83,0.39c-4.34,0.12-8.27-1.65-12.35-2.73c-2.61-0.69-5.17-1.82-8.29-1.08
		c-5.39,3.62-11.68,6.42-17.34,10.28c-0.17,0.11-0.07,0.62-0.13,1.3c5.55,0.59,11.12,0,16.62,0.32c1.39,1.93,1.39,1.93,1.37,5.46
		c-0.47,0.47-0.94,0.94-1.59,1.59c-5.28,0-10.73,0-16.93,0c0.95,1.27,1.39,2.49,2.18,2.8c5.7,2.24,10.34,6.31,16.4,9.06
		c3.8,0.57,7.74-1.34,11.86-2.36c2.88-0.71,5.64-2.17,8.63-1.53c2.44,1.38,1.1,3.61,1.65,5.62c-4.13,1.25-8.12,2.45-12.49,3.77
		c4.5,2.7,8.74,5.25,13.19,7.92c0,0.74,0,1.69,0,3.23c-0.65,0.47-1.7,1.24-3.3,2.41c-4.45-1.03-8.21-5.2-13.54-6.84
		c0.37,3.79,2.24,7.25,2.71,11.43c-0.18,0.36-0.6,1.18-1.11,2.21c-1.26,0-2.71,0-4.42,0c-1.73-2.6-2.36-5.83-3.18-8.97
		c-0.8-3.02-1.53-6.06-2.5-9.97c-0.58-0.38-1.86-1.28-3.19-2.08c-4.27-2.58-8.82-4.64-12.85-7.67c-0.94-0.71-2.6-2.23-4.59-0.59
		c2.81,5.03,6,9.95,8.66,15.51c-1.65,1.15-2.19,3.18-5.1,2.84c-4.36-3.83-5.84-10.17-9.74-14.8c-1.44,0.57-1.73,1.65-1.72,3.05
		c0.05,6.48,0.02,12.96,0.02,19.33c4.71,4.71,9.3,9.3,13.87,13.87c0,1.14,0,2.26,0,3.09c-1.06,1.95-2.67,1.48-4.21,1.54
		c-3.15-2.46-5.44-6-9.53-8.62c-0.25,3.14-0.1,5.74-0.13,8.32c-0.03,2.65-0.01,5.29-0.01,7.89c-2.1,0.65-4.09,3.15-5.98-0.39
		c-0.44-4.81-0.9-9.95-1.35-14.89c-2.48,2.48-5.03,5.03-7.51,7.51c-1.43,0-2.55,0-3.83,0c-0.3-0.3-0.78-0.78-1.29-1.29
		c0-0.95,0-1.94,0-2.86c4.37-4.36,8.72-8.71,12.78-12.77c0.18-7.52,0.34-14.64,0.55-21.75c0.01-0.24,0.38-0.47,0.58-0.7
		c-0.48-0.48-0.95-0.95-1.5-1.5c-3.6,4.91-5.66,10.86-9.89,15c-2.58,0.38-3.41-1.41-4.68-2.7c0.68-3.02,2.27-5.44,4.03-7.91
		c1.67-2.36,2.57-5.25,3.86-8.01c-1.68-1.67-3.32,0.29-4.41,1.01c-4.04,2.68-8.4,4.76-12.49,7.31c-1.34,0.84-2.66,1.72-3.53,2.28
		c-1.46,6.82-2.7,13.07-5.39,18.96c-1.66,0-3.11,0-4.53,0c-0.43-0.84-0.85-1.66-1.31-2.55c0.93-3.58,1.89-7.29,2.99-11.49
		c-4.98,2.67-9.53,5.11-13.94,7.47c-2.61-2.37-2.61-2.37-3.18-4.59c3.09-4.72,9.24-5.26,13.26-9.46c-4.16-1.16-8.13-2.27-12.14-3.39
		c0-1.65,0-3.1,0-4.46c0.44-0.44,0.8-0.8,1.28-1.28c2.97-0.73,5.75,0.78,8.62,1.43c2.7,0.61,5.29,1.75,7.98,2.41
		c3.17,0.79,6.09-0.56,8.56-2.15c3.81-2.45,7.57-4.91,11.67-6.87c0.85-0.4,1.38-1.46,2.39-2.57c-6.31-1.07-12.12,0.56-17.72-1.03
		c-0.28-0.08-0.48-0.45-0.78-0.75c0-1.39,0-2.84,0-4.74c5.83-2.03,12-0.07,18.31-1.16c-0.61-0.95-0.87-1.89-1.44-2.16
		c-5.22-2.43-9.93-5.77-14.93-8.59c-2.18-1.23-4.72-1.61-6.49-0.7c-1.93,0.98-4.03,0.29-5.88,1.63c-1.39,1.01-3.83,0.53-5.34,1.46
		c-1.83,1.13-3.44,0.23-4.83,0.67c-0.65-0.65-1-1-1.4-1.4c0-1.4,0-2.86,0-4.48c3.92-1.08,7.8-2.15,12.4-3.42
		c-2.6-1.72-4.55-3.6-6.87-4.41c-2.78-0.96-4.59-2.84-6.54-4.7c-0.67-2.5,1.3-3.4,2.76-4.78c5.08,1.46,9.05,4.89,14.11,7.71
		c-0.86-5.12-2.93-9.58-1.66-14.42c1.43,0,2.88,0,4.7,0c2.52,5.8,3.9,12.01,5.35,19.01c5.58,3.32,11.72,7,17.91,10.6
		c0.63,0.36,1.54,0.24,2.54,0.38c-1.89-5.93-6.46-10.3-7.96-16.31c1.28-1.19,1.95-3.12,4.72-2.7c4.47,3.87,5.76,10.35,10.03,15.04
		c0.38-1.72,0.74-3.32,1.21-5.41c-1.21-1.34-0.77-3.5-0.79-5.58c-0.02-2,0-4,0-6c0-2.17,0-4.33,0-6.38
		c-4.41-4.41-8.76-8.76-13.3-13.29c0.41-1.5,0.82-2.99,1.2-4.4c1.49,0,2.47,0,3.7,0c2.49,2.6,5.12,5.34,8.1,8.44
		c0.87-5.6-0.69-10.92,1.6-16.15c0.37-0.29,1.04-0.82,1.7-1.35C287.99,0,288.99,0,289.99,0z"/>
	<path d="M66.99,0c0.76,2.38,3.54,4.44,1.17,7.33c1.48,2.02,0.7,4.33,0.78,6.51c0.04,0.98-0.42,1.97-0.78,3.49
		c2.12-1.27,3.93-2.35,5.69-3.4c1.08,0.52,2.06,0.99,3.08,1.49c0,1.29,0,2.61,0,3.99c-2.67,3.39-6.65,5.74-8.65,9.89
		c0.35,1.19,0.73,2.46,1.2,4.03c2.87-2.87,5.56-5.57,8.51-8.52c1.08,0.39,2.38,0.86,3.84,1.38c0,1.42,0,2.87,0,4.45
		c-4.12,4.12-8.36,8.36-12.72,12.72c0,5,0,10.11,0,15.57c3.87-2.03,7.64-3.92,11.33-5.97c2.49-1.38,2.88-4.08,3.52-6.5
		c1.12-4.22,2-8.5,3.07-12.74c0.14-0.57,0.76-1.02,1.24-1.62c1.42,0,2.87,0,4.34,0c1.05,1.91,1.91,3.59,0.51,6.05
		c-1.24,2.18-1.41,4.97-2.16,7.92c3.29-0.63,5.26-2.18,6.03-5.2c0.65-2.56,1.29-5.13,2.02-7.66c0.21-0.73,0.73-1.37,1.13-2.11
		c1.55,0,3,0,4.43,0c0.42,0.82,0.85,1.64,1.48,2.87c0.01,1.05-2.14,2.26-0.5,4.1c2.91-1.64,6.06-3.04,8.75-5.05
		c2.59-1.93,4.88-2.58,7.54-0.66c0,1.49,0,2.95,0,4.51c-4.35,2.5-8.65,4.98-13.06,7.53c1.9,0.98,3.55,1.84,5.14,2.66
		c0,1.62,0,2.93,0,4.34c-0.82,0.49-1.73,1.03-2.61,1.55c-3.1-0.99-6.14-2.19-9.29-2.89c-2.63-0.58-5.11,0.23-7.23,2.68
		c4.13,1.15,8.1,2.26,12.11,3.38c0,1.65,0,3.1,0,4.46c-0.44,0.44-0.8,0.8-1.29,1.29c-2.97,0.74-5.74-0.81-8.62-1.41
		c-4.14-0.86-8.24-1.93-11.54-2.71c-4.69,2.79-8.59,5.11-12.92,7.69c4.18,2.61,7.98,4.98,11.83,7.37c2.9,0.82,5.6-0.36,8.36-1.06
		c2.1-0.53,4.16-1.24,6.27-1.74c2.14-0.51,4.32-0.87,6.55-1.31c0.9,1.45,1.64,2.65,2.31,3.72c-0.96,2.43-2.71,3.4-5.35,3.67
		c-2.56,0.27-5.04,1.4-7.97,2.27c1.57,1.02,2.75,1.78,3.98,2.58c4.2,0.52,7.8-1.9,12.77-2.3c0.21,0.12,1.37,0.79,2.58,1.49
		c0,1.22,0,2.34,0,3.8c-1.5,0.78-3.15,1.64-5.16,2.68c4.47,2.56,8.76,5.03,13.35,7.66c-0.5,1.74,0.89,3.79-1.5,5.56
		c-2.07,0.84-3.91-0.43-5.81-1.58c-3.05-1.84-6.13-3.62-9.16-5.41c-1.27,1.65-0.68,2.9,0.56,3.77c-0.6,1.28-1.06,2.25-1.54,3.26
		c-1.43,0-2.89,0-4.63,0c-0.66-1.72-1.59-3.39-1.9-5.18c-0.22-1.28-0.87-2.45-0.98-3.58c-0.34-3.57-2.29-5.34-5.95-6.24
		c0.29,2.2,0.68,4.21,1.4,6.15c0.42,1.16,1.3,2.27,1.31,3.42c0.02,1.49-0.62,2.98-0.97,4.42c-1.74,0-3.19,0-5.03,0
		c-2.16-5.99-3.42-12.23-5.48-19.3c-4.02-2.32-8.86-5.12-13.71-7.91c-0.19,0.17-0.37,0.34-0.56,0.51c0.29,0.57,0.82,1.13,0.83,1.71
		c0.07,4.5,0.04,9,0.04,13.39c4.41,4.4,8.76,8.75,13,12.99c0,1.56,0,2.89,0,4.38c-1.23,0.5-2.51,1.02-3.91,1.58
		c-3.57-2.41-5.74-6.35-9.69-8.55c0.3,2.14,0.55,3.93,0.84,6.03c2.35,2.31,4.95,4.88,7.62,7.5c0,1.46,0,2.91,0,4.48
		c-1.2,0.48-2.49,0.99-4.06,1.61c-1.12-1.12-2.23-2.22-3.66-3.65c0,4.97,0,9.42,0,13.36c-0.91,1.54-1.55,2.62-2.25,3.81
		c-1.15,0-2.27,0-3.57,0c-0.29-0.29-0.76-0.77-1.41-1.41c0-4.94,0-10.06,0-15.38c-2.5-0.18-3.01,2.5-4.83,2.97
		c-2.28,0.34-2.96-1.58-4.25-2.78c1.03-5.48,6.02-7.68,8.95-11.7c0-1.35,0-2.92,0-5.18c-3.89,2.66-6.27,6.09-9.41,8.68
		c-2.82,0.09-3.98-1.58-4.38-3.67c4.91-4.91,9.59-9.59,13.92-13.92c0-5.89,0-11,0-16.28c-3.06-0.15-4.62,2.47-6.96,3.49
		c-2.26,0.98-4.36,2.35-6.61,3.59c-2.91,6.22-3.02,13.51-6.27,19.55c-2.02,0.38-3.62,0.56-4.9-1.15c-0.95-4.22,1.3-8.16,2.08-12.7
		c-1.97,0.95-3.43,1.65-4.98,2.4c-1.42,4.08-1.51,8.81-4.53,12.56c-1.13,0-2.25,0-3.34,0c-0.38-0.38-0.73-0.73-1.26-1.26
		c0-1.6,0-3.39,0-5.76c-4.87,2.65-9.37,5.09-14.11,7.66c-1.44-1.69-3.53-2.42-3.02-4.93c3.24-4.44,8.96-5.28,13-9.04
		c-1.62-0.87-3.15-1.69-4.8-2.58c0-1.19,0-2.3,0-3.77c0.88-0.58,2.07-1.35,2.75-1.8c4.58,0.46,8.25,3.08,11.77,2.65
		c1.39-0.58,1.99-0.77,2.51-1.08c0.55-0.32,1.03-0.77,1.57-1.19c-0.09-0.27-0.11-0.67-0.25-0.71c-2.37-0.72-4.78-1.32-7.13-2.11
		c-1.46-0.49-2.82-1.25-3.64-1.62C23.2,73.7,23,73.58,23,73.45c-0.03-0.99-0.01-1.99-0.01-2.95c0.5-0.5,0.97-0.97,1.5-1.5
		c1.27,0,2.61-0.13,3.92,0.04c1.22,0.16,2.5,0.43,3.57,1c3.08,1.63,6.66,1.4,9.83,2.83c1.19,0.54,3.07,0.57,4.63-0.69
		c1.66-1.34,3.74-2.15,5.66-3.18c1.92-1.02,3.84-2.02,6.29-3.3c-1.61-1.09-2.72-2.09-4.02-2.66c-2.3-1-4.48-2.07-6.55-3.57
		c-2.01-1.45-4.5-2.53-7.06-0.74c-5.52,0.38-10.43,3.81-16.14,3.27c-1.88-1.12-1.88-2.83-1.34-5.19c1.72-0.7,3.69-1.59,5.72-2.29
		c1.89-0.65,3.86-1.09,5.89-1.66c-3.23-3.27-4.06-3.41-8.21-2.09c-2.36,0.75-4.79,1.25-7.42,1.93c-0.74-0.42-1.81-1.03-3.04-1.73
		c0-1.25,0-2.48,0-3.91c1.58-0.75,3.22-1.52,4.98-2.36c-3.98-4.07-9.86-4.7-13.15-9.27c-0.7-2.36,1.47-3.14,2.59-4.65
		c5.32,1.38,9.04,5.29,14.16,6.97c0.1-1.65,0.2-3.53,0.3-5.12c1.08-2.26,2.9-1.48,4.52-1.66c3.14,3.69,3.05,8.48,4.64,12.53
		c1.3,0.89,2.59,1.76,4.29,2.93c0.19-1.21,0.74-2.46,0.37-2.84c-1.59-1.67-0.68-3.97-1.81-5.81c-0.66-1.08-0.12-2.9-0.12-3.96
		c1.12-2.35,2.95-1.65,4.45-1.83c2.77,2.28,2.49,5.73,3.49,8.63c1.26,3.65,2.1,7.45,3.05,10.94c4.66,2.68,9.05,5.2,13.84,7.95
		c0-5.75,0-10.87,0-16.15c-4.43-4.43-9.03-9.03-13.87-13.87c0.15-0.7,0.13-1.71,0.58-2.43c0.78-1.24,1.52-1.5,3.81-2.08
		c2.97,2.6,5.56,5.81,9.36,8.9c0.15-2.35,0.25-3.89,0.34-5.3c-3.1-3.1-6.04-6.04-9.02-9.02c0-0.96,0-1.95,0-3.01
		c1.17-0.92,1.79-2.79,3.39-2.58c2.53,0.21,2.77,3.34,5.37,3c0-5.13,0-10.24,0-15.19c0.87-0.69,1.54-1.22,2.2-1.74
		C64.99,0,65.99,0,66.99,0z"/>
	<path d="M283.92,193.9c2.55-3.3-1.64-6.39,0.17-9.35c0.63-1.08,1.27-2.15,1.67-2.82c1.17-1.17,3.22-0.74,5.3,0.8
		c0,3.65,0,7.44,0,11.85c2.73-1.6,5.07-2.98,7.42-4.36c1.61-0.94,3.13-2.12,4.85-2.76c1.47-0.55,3.26-0.81,4.52,1.37
		c0,1.04,0,2.5,0,3.93c-5.59,3.29-11.22,6.6-16.7,9.82c0,2.22,0,4.34,0,6.97c7.56-3.71,14.33-8.02,21.47-12.25c1.17,0,2.62,0,3.97,0
		c0.45,0.45,0.81,0.81,1.34,1.34c0,8.61,0,17.39,0,26.83c1.15-0.97,1.85-1.74,2.7-2.24c0.92-0.53,1.99-0.81,3.36-1.34
		c0-4.78-0.07-9.74,0.04-14.69c0.04-1.87,0.49-3.72,0.73-5.42c1.25-0.64,2.22-1.13,3.76-1.91c0.48,1.07,1.03,2.32,1.59,3.57
		c0.33-0.27,0.67-0.54,1-0.81c0,4.79,0,9.57,0,14.75c2.22-1.42,4.2-2.57,6.05-3.9c1.99-1.42,4.16-1.46,6.96-1.14
		c0.36,1.3,0.76,2.78,1.23,4.5c-3.61,2.31-7.02,4.5-10.44,6.69c4.53,2.64,8.83,5.15,12.85,7.49c0.37,2.15,0.58,3.77-1.2,5.04
		c-1.28,0-2.73,0-3.81,0c-5.26-3.05-10.24-5.94-15.18-8.81c-1.85,1.16-3.69,2.31-5.95,3.72c7.56,4.43,14.97,8.77,22.26,13.04
		c0,1.42,0,2.39,0,3.89c-6.28,5.62-14.9,8.34-22.17,13.9c2.19,1.22,4.18,2.33,6.14,3.43c4.9-2.88,9.74-5.72,15.19-8.93
		c0.69,0,2.14,0,3.63,0c0.51,1.3,1.02,2.59,1.59,4.03c-3.34,4.08-8.44,5.46-12.71,8.51c2.58,3.39,6.77,3.92,9.31,6.69
		c0.31,1.62,0.48,3.22-1.27,4.52c-1.28,0-2.73,0-4.24,0c-2.6-1.56-5.26-3.16-8.11-4.87c0,5.14,0,10.25,0,15.54
		c-1.54,0.61-2.94,1.17-4.28,1.7c-2.4-1.73-3.03-3.87-2.98-6.44c0.09-4.66,0.03-9.33,0.03-14.21c-1.4-1.76-3.14-3.22-5.84-3.71
		c0,8.73,0,17.18,0,25.46c-0.65,0.65-1.12,1.12-1.52,1.52c-3.35,0.96-5.96-0.83-8.52-2.31c-5.26-3.04-10.38-6.33-15.58-9.48
		c-0.25-0.15-0.64-0.05-1.26-0.09c-0.59,2.19-0.1,4.45-0.31,6.55c5.69,3.33,11.18,6.55,17.03,9.99c-0.44,1.51,0.97,3.56-1.11,5.1
		c-1.98,1.3-3.83,0.05-5.37-0.72c-3.46-1.73-6.68-3.93-10.29-6.11c0,4.01,0,7.78,0,11.12c-1.3,2.44-3.07,2.27-4.82,1.97
		c-3.89-3.27-1.66-7.97-2.81-12.3c-3.88,2.19-7.51,4.25-11.36,6.42c-0.72,0-1.72,0-2.62,0c-2.33-1.29-1.47-3.46-1.63-5.43
		c5.32-3.16,10.67-6.33,15.7-9.31c0.3-1.92,0.51-3.3,0.82-5.27c-0.06-0.13-0.44-0.93-0.84-1.78c-0.2,0.08-0.44,0.15-0.65,0.28
		c-5.63,3.29-11.24,6.63-16.91,9.88c-2.98,1.7-3.02,1.63-6.73,1.51c-1.37-0.79-1.42-2.04-1.41-3.44c0.05-6.83,0.02-13.66,0.02-20.5
		c0-0.96,0-1.92,0-3.67c-2.48,1.58-4.29,2.74-6,3.83c0,5.17,0.01,9.99,0,14.81c-0.01,2.86-0.03,2.86-2.44,6.05
		c-0.62,0-1.27,0-2.17,0c-0.62-0.72-1.37-1.6-2.45-2.85c0-4.27,0-9.05,0-14.05c-4.28,1.76-7.37,5.98-12.63,4.77
		c-0.32-0.32-0.79-0.79-1.29-1.29c0-0.97,0-1.96,0-3.49c2.91-1.76,6.07-3.67,9.65-5.84c-4.08-3.85-9.6-4.65-12.85-9.12
		c0.39-1.09,0.85-2.41,1.38-3.9c1.36,0,2.82,0,4.05,0c4.92,2.92,9.76,5.79,14.84,8.8c1.79-0.94,3.84-2.02,6.48-3.41
		c-7.94-4.75-15.39-9.21-22.58-13.52c0-1.56,0-2.56,0-4.09c7.15-4.25,14.53-8.65,22.18-13.2c-2.03-1.32-3.77-2.46-5.51-3.59
		c-4.55,2.29-9.06,4.63-13.15,7.73c-1.71,1.29-3.92,1.27-6.55,0.99c-0.38-1.25-0.83-2.72-1.29-4.22c4.1-3.65,8.78-5.8,13.49-8.33
		c-3.45-2.18-6.77-4.27-9.96-6.29c-0.27-1.94-0.64-3.56,1.19-4.91c1.23,0,2.68,0,4.11,0c2.64,1.59,5.31,3.2,8.28,4.98
		c0.43-2.53,0.15-4.98,0.2-7.41c0.05-2.33,0.01-4.67,0.01-7.36c0.84-0.61,1.9-1.38,3.1-2.25c0.63,0.27,1.62,0.7,3.12,1.34
		c0.23,1.71,0.7,3.72,0.74,5.73c0.12,4.81,0.04,9.63,0.04,14.37c1.92,0.91,3.71,1.75,6,2.82c0-3.93,0-7.38,0-10.83
		c0-4.5-0.06-9,0.04-13.5c0.02-1.02,0.59-2.03,0.84-2.85c3.35-0.59,5.71,0.14,8.02,2.05c2,1.65,4.54,2.66,6.83,3.96
		c3.5,2,6.98,4.01,11.16,6.41c-0.42-1.59-0.77-2.46-0.87-3.36c-0.12-1.15-0.03-2.33-0.03-3.93c-4.56-3.95-10.65-5.93-15.85-9.98
		c0-1.01,0-2.46,0-4.02c0.89-0.89,3.56-1.63,4.65-1.01C276.44,189.42,280.04,191.6,283.92,193.9z M304.01,232.93
		c2.54-1.53,4.78-2.89,6.98-4.22c0-7.12,0-14.08-0.01-21.03c0-0.13-0.12-0.29-0.22-0.4c-0.1-0.11-0.25-0.19-0.7-0.51
		c-6.25,3.57-12.65,7.22-18.85,10.76c0,2.53,0,4.97,0,8.04c3.52-1.8,6.64-3.39,9.94-5.07c1.05,1.28,1.87,2.28,2.87,3.51
		C304.01,226.59,304.01,229.56,304.01,232.93z M291.07,274.48c6.63,3.8,13.15,7.52,19.74,11.3c0-7.54,0-15.08,0-21.9
		c-1.39-1.2-2.25-2.15-3.3-2.78c-0.97-0.57-2.15-0.79-3.53-1.27c0,3.29,0,6.07,0,8.73c-1.06,1-1.99,1.86-2.84,2.66
		c-3.74-0.95-6.47-3.45-10.07-4.34C291.07,269.76,291.07,272.21,291.07,274.48z M333.93,245.94c-6.97-4-13.11-7.53-19.18-11.01
		c-3.93,1.9-5.83,3.17-6.76,4.47c2.68,1.77,6.19,2.32,7.9,5.14c0,1.21,0,2.18,0,3.36c-2.61,1.83-5.26,3.69-7.99,5.61
		c2.4,1.39,4.52,2.62,6.76,3.91C320.99,253.65,327.06,250.03,333.93,245.94z M261.42,234.73c-6.28,4.3-13.23,6.67-18.82,11.58
		c6.48,3.84,12.59,7.46,18.73,11.1c2.47-1.33,4.62-2.5,6.89-3.72c-2.72-2.61-6.4-3.51-8.23-6.36c0-1.16,0-1.99,0-2.56
		c1.73-3.37,6.25-3.1,7.75-6.21C265.54,237.22,263.57,236.03,261.42,234.73z M274.81,220.51c3.13,1.51,6.07,2.92,9.03,4.34
		c0-2.76,0-5.2,0-7.81c-6.31-3.14-11.8-7.71-18.65-10.17c0,7.64,0,14.85,0,22.02c1.22,0.77,2.25,1.48,3.33,2.1
		c1.09,0.63,2.22,1.18,3.45,1.83c0-3.28,0-6.26,0-8.65C273.03,222.81,273.83,221.79,274.81,220.51z M265.13,285.91
		c7.02-4.32,14.06-7.24,19.35-11.89c-0.22-1.76-0.37-2.82-0.49-3.88c-0.11-1.02-0.18-2.04-0.28-3.22c-2.33,1.39-4.34,2.59-6.62,3.94
		c-1.02,0-2.47,0-3.62,0c-2.76-3.41-0.67-7.41-1.96-11.24c-2.32,1.39-4.42,2.65-6.38,3.83
		C265.13,270.62,265.13,277.71,265.13,285.91z M296.81,230.84c-2.6,0.67-4.47,1.9-5.9,3.91c0.09,1.79,0.18,3.53,0.3,5.8
		c2.27-1.53,4.06-2.75,5.6-3.79C296.81,234.68,296.81,232.9,296.81,230.84z M291.14,257.99c1.53,0.99,3.35,2.16,5.63,3.62
		c0-2.55,0-4.45,0-6.36c-1.55-1.45-3.16-2.68-5.63-2.07C291.14,254.64,291.14,256.09,291.14,257.99z M276.52,249.76
		c0.59-0.91,0.92-1.69,1.5-2.23c0.59-0.55,1.42-0.86,2.68-1.58c-1.28-0.7-2.06-1.06-2.76-1.52c-0.76-0.5-1.46-1.11-2.36-1.8
		c-0.93,0.65-1.65,1.21-2.42,1.69c-0.74,0.47-1.51,0.86-2.35,1.33C271.66,248.15,273.88,248.25,276.52,249.76z M305.7,246.05
		c-1.26-0.72-2.02-1.09-2.7-1.56c-0.75-0.52-1.43-1.15-2.34-1.89c-1.76,1.17-3.33,2.22-5.21,3.47c2.1,1.3,3.74,2.31,5.54,3.43
		c0.83-0.83,1.33-1.46,1.95-1.91C303.62,247.09,304.41,246.75,305.7,246.05z M283.62,232.81c-1.51-0.7-2.85-1.32-4.45-2.06
		c0,2.34,0,4.23,0,6.22c1.45,0.78,2.8,1.51,4.21,2.27c0.55-1.12,1-2.02,1.44-2.91c-0.16-0.16-0.35-0.26-0.38-0.4
		C284.18,235.04,283.96,234.14,283.62,232.81z M278.88,255.19c0.35,2.15-0.34,4.12,0.69,6.13c1.64-0.94,2.99-1.72,4.14-2.38
		c0-2.17,0-4.06,0-6.35C281.97,253.52,280.61,254.25,278.88,255.19z"/>
	<path d="M513.99,309.5c-0.7,0.7-1.05,1.05-1.45,1.45c-1.27,0-2.59,0-4.14,0c-0.43-0.98-1.21-2.05-1.35-3.2
		c-0.23-1.97-0.06-3.99-0.06-5.99c0-6.14,0-12.28,0-18.74c-7.07,4-13.88,7.85-21.17,11.97c-0.69,0-2.02,0-3.34,0
		c-0.48-0.48-0.95-0.95-1.6-1.6c0-8.28,0-16.73,0-25.74c-3.85,2.06-7.64,3.52-10.74,5.89c-3.29,2.51-7.59,3.16-10.57,6.35
		c-1.32,0-2.77,0-4.06,0c-2.03-1.09-1.5-2.84-1.46-4.84c7.45-4.43,15.08-8.96,23.08-13.71c-7.24-4.26-14.39-8.46-21.96-12.91
		c-0.23-0.45-0.72-1.41-1.2-2.36c0.12-0.32,0.15-0.66,0.34-0.89c2.48-3.05,6.1-4.43,9.35-6.37c4.42-2.64,8.82-5.3,13.49-8.1
		c-7.97-4.69-15.66-9.21-23.07-13.57c-0.09-2.19-0.6-3.93,1.44-5.07c1.12,0,2.43,0,3.38,0c7.23,4.17,14.22,8.2,21.67,12.49
		c0.8-4.71,0.32-8.95,0.4-13.14c0.09-4.32,0.02-8.65,0.02-12.92c0.4-0.4,0.76-0.76,1.3-1.3c1.24,0,2.68,0,3.84,0
		c6.88,3.95,13.63,7.82,20.4,11.71c0.04-0.04,0.18-0.12,0.27-0.24c0.09-0.12,0.17-0.28,0.17-0.42c0.01-8.16,0.01-16.32,0.01-24.89
		c0.7-0.51,1.63-1.2,3.19-2.34c0.71-0.11,2.33-0.41,3.86,1.65c0,8.43,0,17.34,0,26.9c7.51-4.32,14.48-8.32,21.79-12.52
		c0.88,0,2.2,0,3.87,0c0.4,1.3,1.13,2.73,1.23,4.2c0.2,3.15,0.06,6.33,0.06,9.49c0,4.31,0,8.62,0,13.44c1.4-0.49,2.73-0.59,3.53-1.3
		c3.82-3.35,8.95-4.47,12.83-7.71c0.45-0.38,1.27-0.35,1.67-0.75c2.1-2.13,4.63-2.74,7.7-2.34c0.49,1.33,1.03,2.78,1.68,4.56
		c-7.82,4.63-15.45,9.15-23.46,13.89c6.71,5.64,15.12,8.49,21.98,13.6c0,1.2,0,2.18,0,3.56c-6.61,5.32-14.82,8.68-22.21,13.78
		c7.86,4.65,15.48,9.16,23.04,13.63c0.23,1.74,0.91,3.42-1.39,4.74c-0.97,0-2.42,0-3.94,0c-6.88-3.95-13.88-7.95-21.16-12.13
		c-0.99,9.2,0.83,18.28-1.22,27.18c-1.79,0-3.24,0-4.22,0c-7.26-4.11-14.15-8.01-21.02-11.9c-0.16,0.05-0.33,0.08-0.45,0.16
		c-0.14,0.09-0.34,0.23-0.34,0.35C513.98,292.16,513.99,300.83,513.99,309.5z M514.06,274.42c6.64,3.87,13.13,7.64,19.76,11.51
		c0-7.69,0-15.23,0-22.65c-5.79-3.39-11.37-6.7-17.02-9.9c-0.72-0.41-1.74-0.29-2.74-0.43
		C514.06,260.46,514.06,267.55,514.06,274.42z M514.16,218.05c0,7.57,0,14.68,0,22.1c6.82-3.93,13.37-7.7,19.66-11.33
		c0-7.44,0-14.56,0-22.77C526.78,210.4,520.06,213.89,514.16,218.05z M503.7,246.03c-6.71-3.93-12.83-7.51-19.34-11.32
		c-6.08,3.56-12.32,7.21-19.09,11.18c6.23,4.79,13.03,7.45,19.17,11.46C490.83,253.59,497.04,249.95,503.7,246.03z M537.53,234.77
		c-2.98,1.65-6.4,3.19-9.41,5.31c-2.99,2.11-6.86,2.9-9.76,6.27c6.65,3.8,12.92,7.39,19.44,11.13c5.85-4.53,12.72-7.06,18.55-11.63
		C549.98,242.09,543.98,238.56,537.53,234.77z M507.99,219.53c-0.98-1.3-1.59-2.96-2.71-3.44c-4.74-2.04-8.82-5.16-13.31-7.59
		c-1.15-0.62-2.4-1.08-3.87-1.73c0,7.6,0,14.7,0,22.08c5.82,3.76,12.13,6.96,18.88,10.73c0-2.33,0-3.96,0-5.58
		c0-1.66-0.14-3.34,0.04-4.98c0.19-1.74-0.45-3.45,0.49-5.29C507.98,222.81,506.18,221.03,507.99,219.53z M488.06,285.9
		c6.54-3.85,12.82-7.55,18.75-11.04c0-7.55,0-14.64,0-22.3c-6.52,3.7-12.65,7.18-18.75,10.65
		C488.06,270.8,488.06,278.22,488.06,285.9z"/>
	<path d="M9.22,212.17c2.59-0.51,4.77,0.01,6.91,1.41c3.39,2.22,6.93,4.2,10.63,6.41c0.46-2.21,0.15-4.5,0.21-6.75
		c0.06-2.16-0.04-4.33,0.03-6.5c0.04-1.13,1.33-4.2,2.13-5.44c1.69-0.51,3.38-0.75,4.86,1.28c0,6.88,0,13.99,0,21.4
		c9.15,5.31,18.3,10.63,27.75,16.12c0.5-5.18,0.16-10.25,0.22-15.3c0.06-5,0.01-10,0.01-15.47c-5.67-4.48-12.49-7.66-18.9-11.55
		c0-1.05,0-2.02,0-3.48c0.73-0.51,1.81-1.25,3.44-2.37c4.7,2.09,9.57,5.45,15.15,8.54c0.72-6.3,0.03-12.21,0.44-18.59
		c1.34-0.36,2.82-0.76,4.13-1.12c1.08,1.08,1.91,1.91,2.8,2.8c-0.38,5.4,0.54,10.91-0.69,16.86c5.37-2.93,10.49-5.72,15.58-8.5
		c1.08,0.55,2.04,1.03,3.03,1.54c0,1.31,0,2.63,0,4.37c-6.08,3.62-12.38,7.37-18.55,11.04c1.17,5.16,0.43,10.17,0.55,15.15
		c0.13,5.16,0.03,10.33,0.03,16c8.89-6.01,18.57-10.17,26.98-16.18c0-6.97,0-13.63,0-20.28c1.31-1.17,2.13-3.15,4.62-2.5
		c0.63,0.75,1.39,1.63,2.48,2.92c0,4.88,0,10.34,0,16.14c4.68-2.69,9.07-5.22,13.9-8c0.86,0,2.31,0,3.47,0
		c1.97,1.05,1.5,2.66,1.56,4.43c-4.33,4.08-10.41,5.94-15.16,10.03c5.02,3.48,11.01,5.23,14.86,9.61c-0.35,1.2-0.64,2.23-1,3.46
		c-0.68,0.36-1.64,0.85-2.7,1.4c-6.12-3.58-12.28-7.2-18.47-10.82c-8.83,5.09-17.77,10.25-27.27,15.72
		c9.32,5.67,18.27,10.82,27.12,15.84c6.3-3.6,12.62-7.22,18.83-10.77c0.82,0.46,1.47,0.83,2.46,1.39c0.29,0.54,0.8,1.5,1.34,2.51
		c-0.38,0.77-0.79,1.59-1.4,2.82c-4.64,2.04-9.22,5.07-14.09,8.27c5.47,3.16,10.54,6.09,15.42,8.91c-0.08,2.08,0.78,3.91-1.84,5
		c-0.75,0-2.06,0-3.09,0c-4.62-2.67-9.06-5.25-13.93-8.06c-0.19,2.89-0.07,5.64-0.09,8.38c-0.02,2.67,0,5.33,0,8.37
		c-0.78,0.45-1.79,1.05-2.81,1.64c-1.08,0.84-2.69,1.17-4.06-0.66c0-6.88,0-14,0-21.4c-8.07-5.31-16.65-9.75-25.03-14.53
		c-0.77-0.44-1.74-0.54-2.69-0.83c1.17,5.2,0.43,10.21,0.56,15.18c0.13,5.16,0.03,10.33,0.03,15.71c3.27,1.89,6.76,3.66,9.97,5.84
		c3.13,2.14,7.47,2.77,8.85,7.02c-0.56,0.96-1.2,2.04-1.59,2.7c-1.01,1.01-3.2,0.78-4.42,0.05c-4.14-2.47-8.3-4.89-12.47-7.3
		c-0.22-0.13-0.62,0.05-0.94,0.09c1.04,3.72,0.95,14-0.64,18.74c-1.39,0-2.85,0-4.4,0c-0.37-0.37-0.84-0.84-1.49-1.49
		c0-5.61,0-11.4,0-17.71c-5.41,2.75-10.25,5.74-15.12,8.63c-1.36-0.62-2.47-1.13-3.64-1.67c0-1.43,0-2.88,0-4.43
		c6.24-3.55,12.44-7.07,18.8-10.69c0-9.92,0-20.04,0-30.57c-1,0.16-2.01,0.07-2.74,0.48c-3.39,1.91-6.67,4-10.03,5.96
		c-4.97,2.9-9.98,5.74-15,8.62c0,7.34,0,14.46,0,21.4c-0.65,0.65-1.12,1.12-1.61,1.61c-0.98,0-1.97,0-3.2,0
		c-0.69-1.06-1.46-2.25-2.34-3.59c0.26-2.86-0.46-5.99,0.6-9.22c-1.7-1.38,0.16-3.78-0.91-5.79c-4.84,2.73-9.87,5.56-15.07,8.49
		c-1.09-0.63-2.24-1.29-3.46-2c0-1.21,0-2.32,0-3.88c2.34-1.3,4.96-2.68,7.51-4.17c2.41-1.41,4.77-2.92,7.53-4.62
		c-0.59-0.68-1.12-1.69-1.95-2.16c-3.08-1.77-6.29-3.31-9.38-5.08c-1.1-0.63-1.98-1.63-2.81-2.34c0-1.24,0-2.23,0-3.4
		c1.14-0.7,2.33-1.43,3.51-2.15c6.05,3.53,12.09,7.07,18.31,10.7c8.52-4.9,17.4-10.01,26.57-15.28c-0.65-0.89-0.97-1.74-1.58-2.08
		c-3.38-1.87-6.87-3.54-10.23-5.44c-2.85-1.61-5.63-3.37-8.33-5.22c-5-3.42-7.31-3.78-11.92-0.52c-4.22,2.99-9,4.96-13.64,8.3
		c-0.72-1.26-1.38-2.42-2.04-3.57c-0.22,0.2-0.44,0.41-0.66,0.61c0-0.99,0-1.98,0-3.16c3.83-4.21,10.33-4.84,14.3-9.46
		c-5.35-3.16-10.4-6.14-15.69-9.26C8.23,215,8.73,213.56,9.22,212.17z"/>
</g>
</svg>
